<svg width="16" height="16" viewBox="0 0 16 16" fill="none" xmlns="http://www.w3.org/2000/svg">
<path d="M7.99967 14.6663C11.6816 14.6663 14.6663 11.6816 14.6663 7.99967C14.6663 4.31778 11.6816 1.33301 7.99967 1.33301C4.31778 1.33301 1.33301 4.31778 1.33301 7.99967C1.33301 11.6816 4.31778 14.6663 7.99967 14.6663Z" stroke="url(#paint0_linear_75_104)" stroke-width="1.33333" stroke-linecap="round" stroke-linejoin="round"/>
<path d="M6.05957 6.00038C6.21631 5.55483 6.52567 5.17912 6.93287 4.9398C7.34008 4.70049 7.81883 4.61301 8.28435 4.69285C8.74988 4.7727 9.17211 5.01473 9.47629 5.37607C9.78046 5.7374 9.94694 6.19473 9.94624 6.66705C9.94624 8.00038 7.94624 8.66705 7.94624 8.66705" stroke="url(#paint1_linear_75_104)" stroke-width="1.33333" stroke-linecap="round" stroke-linejoin="round"/>
<path d="M8 11.333H8.00667" stroke="url(#paint2_linear_75_104)" stroke-width="1.33333" stroke-linecap="round" stroke-linejoin="round"/>
<defs>
<linearGradient id="paint0_linear_75_104" x1="3.35158" y1="-3.7847" x2="19.4409" y2="2.56138" gradientUnits="userSpaceOnUse">
<stop stop-color="#EBBD57"/>
<stop offset="1" stop-color="#AD7B3D"/>
</linearGradient>
<linearGradient id="paint1_linear_75_104" x1="6.64798" y1="3.1276" x2="11.3745" y2="4.93769" gradientUnits="userSpaceOnUse">
<stop stop-color="#EBBD57"/>
<stop offset="1" stop-color="#AD7B3D"/>
</linearGradient>
<linearGradient id="paint2_linear_75_104" x1="8.00101" y1="10.9492" x2="8.01031" y2="10.9492" gradientUnits="userSpaceOnUse">
<stop stop-color="#EBBD57"/>
<stop offset="1" stop-color="#AD7B3D"/>
</linearGradient>
</defs>
</svg>
